<svg xmlns="http://www.w3.org/2000/svg" width="151" height="151" viewBox="0 0 151 151">
  <defs>
    <style>
      .cls-1 {
        fill: none;
        stroke: #565159;
        stroke-miterlimit: 10;
        stroke-width: 8px;
      }

      .cls-2 {
        fill: #565159;
      }
    </style>
  </defs>
  <title>Asset 1</title>
  <g id="Layer_2" data-name="Layer 2">
    <g id="Layer_1-2" data-name="Layer 1">
      <circle class="cls-1" cx="75.5" cy="75.5" r="71.5"/>
      <path class="cls-2" d="M106.15,54.74a20,20,0,0,0,4.46-4,24.66,24.66,0,0,0,2.46-4.93s-2.93,1.53-4.58,2.23S103,49.81,103,49.81s-5.66-6.34-14-5.16-11.5,7.16-11.5,7.16a14.46,14.46,0,0,0-2.58,6.45,52.76,52.76,0,0,0,0,6.57S64.32,64,55.29,59.61A38.12,38.12,0,0,1,41.62,47.7S38.22,56,40.09,61a21.39,21.39,0,0,0,6.45,8.33A21.61,21.61,0,0,1,42,68.7a9.86,9.86,0,0,1-2.44-1.64s-.37,7.74,3.62,11.26a29,29,0,0,0,9.15,5.16,21.27,21.27,0,0,1-4.34.59H44.79s3.17,6.1,6.34,8S60,95,60,95a24.2,24.2,0,0,1-9.39,5.4C45,102,36,101.79,36,101.79s33.28,14.56,58.85-7.51c15.2-13.12,12.2-33.68,12.2-33.68a55.34,55.34,0,0,0,5-4.34A22.4,22.4,0,0,0,115,52.15a30.22,30.22,0,0,1-4.69,2A39.81,39.81,0,0,1,106.15,54.74Z"/>
    </g>
  </g>
</svg>
